<svg xmlns="http://www.w3.org/2000/svg" viewBox="0 0 204.5 203"><defs><style>.cls-1{fill:#4d4d4d;}.cls-2{fill:#e6e6e6;}.cls-3{fill:#ccc;}.cls-4{fill:#00364f;}.cls-5{fill:#fff;}.cls-6{fill:#333;}</style></defs><title>icon-photo</title><g id="Layer_2" data-name="Layer 2"><g id="Layer_1-2" data-name="Layer 1"><rect class="cls-1" width="204.5" height="203"/><rect class="cls-2" x="4.25" y="5.19" width="196" height="192.61"/><rect class="cls-3" x="22.62" y="47.1" width="13" height="22"/><path class="cls-4" d="M181.65,56.1h-14.5l-1.7-5A16.31,16.31,0,0,0,150,40.1H55.74a16.31,16.31,0,0,0-15.44,11l-1.7,5H24.11a12,12,0,0,0-12,12v83a12,12,0,0,0,12,12H181.65a12,12,0,0,0,12-12v-83A12,12,0,0,0,181.65,56.1Z"/><circle class="cls-5" cx="102.88" cy="108.1" r="45"/><circle class="cls-6" cx="102.88" cy="108.1" r="30"/><circle class="cls-5" cx="175.62" cy="78.1" r="10"/></g></g></svg>