<svg xmlns="http://www.w3.org/2000/svg" viewBox="0 0 204.5 203"><defs><style>.cls-1{fill:#4d4d4d;}.cls-2{fill:#fff;}.cls-3{fill:#29abe2;}.cls-4{fill:#00a99d;}.cls-5{fill:#0071bc;}</style></defs><title>icon-video</title><g id="Layer_2" data-name="Layer 2"><g id="Layer_1-2" data-name="Layer 1"><rect class="cls-1" width="204.5" height="203"/><rect class="cls-2" x="5.25" y="6" width="17" height="17"/><rect class="cls-2" x="5.25" y="27.75" width="17" height="17"/><rect class="cls-2" x="5.25" y="49.5" width="17" height="17"/><rect class="cls-2" x="5.25" y="93" width="17" height="17"/><rect class="cls-2" x="5.25" y="71.25" width="17" height="17"/><rect class="cls-2" x="5.25" y="114.75" width="17" height="17"/><rect class="cls-2" x="5.25" y="136.5" width="17" height="17"/><rect class="cls-2" x="5.25" y="158.25" width="17" height="17"/><rect class="cls-2" x="5.25" y="180" width="17" height="17"/><rect class="cls-2" x="182.25" y="6" width="17" height="17"/><rect class="cls-2" x="182.25" y="27.75" width="17" height="17"/><rect class="cls-2" x="182.25" y="49.5" width="17" height="17"/><rect class="cls-2" x="182.25" y="93" width="17" height="17"/><rect class="cls-2" x="182.25" y="71.25" width="17" height="17"/><rect class="cls-2" x="182.25" y="114.75" width="17" height="17"/><rect class="cls-2" x="182.25" y="136.5" width="17" height="17"/><rect class="cls-2" x="182.25" y="158.25" width="17" height="17"/><rect class="cls-2" x="182.25" y="180" width="17" height="17"/><rect class="cls-3" x="27.37" y="51.92" width="150" height="98"/><rect class="cls-4" x="27.37" y="154.67" width="150" height="43"/><rect class="cls-5" x="27.37" y="4.67" width="150" height="42"/><polygon class="cls-2" points="118.75 101.5 85.75 82.45 85.75 120.55 118.75 101.5"/></g></g></svg>