<?xml version="1.0" encoding="utf-8"?>
<!-- Generator: Adobe Illustrator 21.0.2, SVG Export Plug-In . SVG Version: 6.00 Build 0)  -->
<svg version="1.1" id="Layer_1" xmlns="http://www.w3.org/2000/svg" xmlns:xlink="http://www.w3.org/1999/xlink" x="0px" y="0px"
	 viewBox="0 0 2001 390" style="enable-background:new 0 0 2001 390;" xml:space="preserve">
<style type="text/css">
	.st0{fill:url(#SVGID_1_);}
	.st1{fill:#00074D;}
</style>
<radialGradient id="SVGID_1_" cx="117" cy="246" r="63.6396" fx="117" fy="266.6176" gradientTransform="matrix(1 0 0 1.9886 0 -243.1926)" gradientUnits="userSpaceOnUse">
	<stop  offset="0" style="stop-color:#FFDF7F"/>
	<stop  offset="0.2359" style="stop-color:#FDDC7C"/>
	<stop  offset="0.4085" style="stop-color:#F5D373"/>
	<stop  offset="0.5609" style="stop-color:#E7C363"/>
	<stop  offset="0.7017" style="stop-color:#D5AC4D"/>
	<stop  offset="0.8344" style="stop-color:#BC8F30"/>
	<stop  offset="0.9595" style="stop-color:#9F6C0D"/>
	<stop  offset="1" style="stop-color:#945F00"/>
</radialGradient>
<rect x="67.5" y="155" class="st0" width="99" height="172"/>
<g>
	<g>
		<path class="st1" d="M154.2,165.9H79.8h-6.6v6.3v0.4v2.9v139.5v2.2v0.7v4.5v1.4h2.5l0.1,0.1l0-0.1h4.1h74.5h6.6v-2.2v-4.5v-2.9
			v-138v-2.9v-0.4v-0.4v-6.6H154.2z M79.8,172.5h74.5v1.9l-37,64.1l-37.5-64.9V172.5z M79.8,186.9l33.6,58.2l-33.6,58.2V186.9z
			 M154.2,317.1H79.8v-0.4l37.5-64.9l37,64.1V317.1z M154.2,302.7L121,245.2l33.2-57.5V302.7z"/>
		<g>
			<rect x="61.3" y="153.7" class="st1" width="10.3" height="181.4"/>
			
				<rect x="111.8" y="274.3" transform="matrix(6.123234e-17 -1 1 6.123234e-17 -212.9773 446.9773)" class="st1" width="10.3" height="111.4"/>
			<rect x="162.4" y="153.7" class="st1" width="10.3" height="181.4"/>
			
				<rect x="111.8" y="103.2" transform="matrix(6.123234e-17 -1 1 6.123234e-17 -41.8562 275.8562)" class="st1" width="10.3" height="111.4"/>
			<path class="st1" d="M61.3,335.1v1v10.1h19.9c0,0-0.7-2.2,3.7-6.6s12.5-4.4,12.5-4.4"/>
			<path class="st1" d="M172.7,335.1v1v10.1h-19.9c0,0,0.7-2.2-3.7-6.6c-4.4-4.4-12.5-4.4-12.5-4.4"/>
		</g>
		<rect x="54.5" y="144.8" class="st1" width="125.1" height="9.6"/>
		<polygon class="st1" points="172.3,145.8 133.2,108 132.5,108 128.1,108 105.9,108 101.5,108 100.8,108 61.7,145.8 101.5,145.8 
			101.5,146.3 132.5,146.3 132.5,145.8 		"/>
		<g>
			<rect x="100.4" y="96.2" class="st1" width="3.7" height="13.3"/>
			<rect x="129.9" y="96.2" class="st1" width="3.7" height="13.3"/>
		</g>
		<polygon class="st1" points="117,85.8 92.4,98.5 141.6,98.5 		"/>
		<circle class="st1" cx="117" cy="84.4" r="3"/>
		<path class="st1" d="M117,32.7c-14.5,0-26.2,11.7-26.2,26.2c0,14.5,11.7,26.2,26.2,26.2c14.5,0,26.2-11.7,26.2-26.2
			C143.2,44.5,131.5,32.7,117,32.7z M117,83.8c-13.7,0-24.9-11.1-24.9-24.9S103.3,34,117,34s24.9,11.1,24.9,24.9
			S130.7,83.8,117,83.8z"/>
		<path class="st1" d="M71.2,204.6L71.2,204.6c-3.9,0-7-3.2-7-7v-11.1c0-3.9,3.2-7,7-7h0c3.9,0,7,3.2,7,7v11.1
			C78.2,201.4,75.1,204.6,71.2,204.6z"/>
		<path class="st1" d="M71.2,316L71.2,316c-3.9,0-7-3.2-7-7v-11.1c0-3.9,3.2-7,7-7h0c3.9,0,7,3.2,7,7V309
			C78.2,312.8,75.1,316,71.2,316z"/>
	</g>
	<g>
		<path d="M278.2,234.1v-3.2c1.8-0.1,3.3-0.2,4.4-0.5c1.1-0.3,1.9-0.7,2.6-1.4c0.6-0.6,1-1.5,1.2-2.7c0.2-1.2,0.3-2.7,0.3-4.6v-37
			c0-1.9-0.1-3.4-0.2-4.5c-0.2-1.1-0.5-2.1-1-2.7c-0.5-0.7-1.2-1.1-2.1-1.4s-2-0.4-3.5-0.5v-3.2h25.7c8.1,0,14.3,1.3,18.6,3.9
			c4.3,2.6,6.5,6.3,6.5,11.1c0,6.3-4.6,10.8-13.7,13.4v0.3c2.9,0,5.6,0.4,8,1.2c2.4,0.8,4.4,2,6,3.5c1.7,1.5,2.9,3.3,3.8,5.3
			c0.9,2,1.4,4.2,1.4,6.6c0,2.7-0.7,5.1-2,7.1c-1.3,2-3.2,3.7-5.6,5.1c-4.7,2.7-11.3,4-19.6,4H278.2z M303.2,199.3
			c2.4,0,4.5-0.2,6.2-0.7c1.8-0.5,3.3-1.1,4.5-2c2.6-1.8,3.8-4.5,3.8-8.2c0-3.9-1-6.7-2.9-8.4c-1.9-1.7-5-2.6-9.3-2.6h-5.7
			c-1,0-1.4,0.5-1.4,1.4v20.6H303.2z M309.6,229.2c8.6,0,12.9-3.9,12.9-11.6c0-4.7-1.5-8.2-4.6-10.4c-1.6-1.1-3.7-1.9-6.2-2.4
			c-2.5-0.5-5.6-0.7-9.3-0.7h-3.8v16c0,3.3,0.9,5.7,2.6,7C302.7,228.5,305.6,229.2,309.6,229.2z"/>
		<path d="M429.2,234.1h-55.1v-3.2c1.8-0.1,3.2-0.2,4.3-0.5c1.1-0.3,2-0.7,2.6-1.4c0.6-0.6,1-1.5,1.2-2.7c0.2-1.2,0.3-2.7,0.3-4.6
			v-37c0-1.9-0.1-3.4-0.3-4.5c-0.2-1.1-0.5-2.1-1.1-2.7c-0.5-0.7-1.3-1.1-2.3-1.4c-1-0.2-2.3-0.4-3.9-0.5v-3.2h27.6v3.2
			c-1.8,0.1-3.3,0.2-4.4,0.5c-1.1,0.3-1.9,0.7-2.5,1.4c-0.6,0.7-1,1.7-1.2,2.9c-0.2,1.2-0.3,2.9-0.3,4.9v33.5c0,2.2,0.2,4.1,0.7,5.5
			c0.5,1.4,1.2,2.5,2.4,3.3c1.1,0.8,2.6,1.3,4.5,1.6c1.9,0.3,4.2,0.4,7,0.4c3.1,0,5.7-0.2,7.8-0.6c2.1-0.4,3.8-1.1,5.2-2.1
			s2.5-2.4,3.4-4.2c0.9-1.8,1.6-4.1,2.2-6.9h3.2L429.2,234.1z"/>
		<path d="M524.3,209.3c0,4.5-0.5,8.4-1.5,11.6c-1,3.2-2.5,5.9-4.6,8c-2.1,2.1-4.8,3.6-8,4.6c-3.3,1-7.2,1.4-11.8,1.4
			c-8.6,0-14.9-1.8-18.8-5.4c-4-3.6-6-9.3-6-17.2v-21.9c0-2.1,0-3.8-0.1-5.2c-0.1-1.4-0.1-2.6-0.2-3.6c-0.1-1-0.3-1.7-0.4-2.4
			c-0.2-0.6-0.4-1.1-0.7-1.6c-0.5-0.7-1.2-1.3-2.1-1.5c-0.9-0.3-2.3-0.4-4.2-0.4v-3.2h28.7v3.2c-2.2,0-3.9,0.1-5,0.4
			c-1.1,0.2-1.9,0.7-2.5,1.4c-0.4,0.4-0.7,0.9-0.9,1.6c-0.2,0.6-0.4,1.4-0.6,2.4c-0.1,1-0.2,2.2-0.3,3.6c-0.1,1.4-0.1,3.2-0.1,5.3
			v21c0,6.1,1.3,10.6,3.9,13.5c2.6,2.9,6.6,4.4,12,4.4c11,0,16.5-6.1,16.5-18.3v-18.5c0-2.2,0-4.2-0.1-5.8c-0.1-1.6-0.2-3-0.4-4.1
			c-0.2-1.1-0.4-2.1-0.7-2.8c-0.3-0.7-0.7-1.4-1.1-1.8c-0.7-0.7-1.7-1.3-2.9-1.6c-1.2-0.3-2.8-0.5-4.9-0.5v-3.2h25.9v3.2
			c-2,0-3.5,0.1-4.6,0.4c-1.1,0.3-1.9,0.8-2.5,1.6c-0.4,0.5-0.8,1.1-1,1.9c-0.3,0.8-0.5,1.7-0.6,2.9c-0.2,1.1-0.3,2.5-0.4,4.1
			c-0.1,1.6-0.1,3.5-0.1,5.8V209.3z"/>
		<path d="M589.1,200c3.4,0,6.2-0.1,8.2-0.3c2.1-0.2,3.7-0.7,4.8-1.3c1.1-0.7,2-1.6,2.4-2.9c0.5-1.3,0.9-3,1.1-5.2h3v23.4h-3
			c-0.3-2.1-0.7-3.8-1.3-5.1c-0.5-1.3-1.4-2.3-2.6-2.9c-1.2-0.7-2.8-1.1-4.8-1.3c-2-0.2-4.7-0.3-8-0.3v16.5c0,1.7,0.2,3.1,0.7,4.3
			c0.5,1.2,1.2,2.1,2.3,2.8c1.1,0.7,2.5,1.2,4.2,1.5c1.8,0.3,3.9,0.4,6.5,0.4c3,0,5.6-0.2,7.7-0.6c2.1-0.4,3.9-1.2,5.2-2.2
			c1.4-1.1,2.5-2.5,3.4-4.3c0.9-1.8,1.6-4,2.2-6.8h3.2l-1.3,18.3h-54.2v-3.2c1.8-0.1,3.2-0.2,4.3-0.5c1.1-0.3,2-0.7,2.6-1.4
			s1-1.5,1.2-2.7c0.2-1.2,0.3-2.7,0.3-4.6v-37c0-1.9-0.1-3.4-0.3-4.5c-0.2-1.1-0.5-2.1-1.1-2.7c-0.5-0.7-1.3-1.1-2.3-1.4
			c-1-0.2-2.3-0.4-3.9-0.5v-3.2h50.6l0.6,15.7h-3.4c-0.3-2.2-0.8-4.1-1.5-5.6c-0.7-1.5-1.7-2.6-2.9-3.5c-1.2-0.9-2.8-1.5-4.8-1.8
			c-1.9-0.3-4.3-0.5-7.2-0.5h-9c-1.4,0-2.2,0.2-2.6,0.5c-0.3,0.3-0.5,1.2-0.5,2.4V200z"/>
		<path d="M770.4,234.1h-55.1v-3.2c1.8-0.1,3.2-0.2,4.3-0.5c1.1-0.3,2-0.7,2.6-1.4s1-1.5,1.2-2.7c0.2-1.2,0.3-2.7,0.3-4.6v-37
			c0-1.9-0.1-3.4-0.3-4.5c-0.2-1.1-0.5-2.1-1.1-2.7c-0.5-0.7-1.3-1.1-2.3-1.4c-1-0.2-2.3-0.4-3.9-0.5v-3.2h27.6v3.2
			c-1.8,0.1-3.3,0.2-4.4,0.5c-1.1,0.3-1.9,0.7-2.5,1.4c-0.6,0.7-1,1.7-1.2,2.9c-0.2,1.2-0.3,2.9-0.3,4.9v33.5c0,2.2,0.2,4.1,0.7,5.5
			s1.2,2.5,2.4,3.3c1.1,0.8,2.6,1.3,4.5,1.6c1.9,0.3,4.2,0.4,7,0.4c3.1,0,5.7-0.2,7.8-0.6c2.1-0.4,3.8-1.1,5.2-2.1
			c1.4-1,2.5-2.4,3.4-4.2c0.9-1.8,1.6-4.1,2.2-6.9h3.2L770.4,234.1z"/>
		<path d="M845,215.4h-22.6c-2.5,5.7-3.8,9.6-3.8,11.8c0,1.6,0.6,2.6,1.8,3c1.2,0.4,3,0.6,5.4,0.6v3.2h-21.9v-3.2
			c1.3-0.2,2.4-0.4,3.3-0.6c0.9-0.3,1.8-0.6,2.5-1.1c0.7-0.5,1.3-1.1,1.9-1.9c0.5-0.8,1-1.7,1.5-2.8l21-52.7h5.9l19.1,46.7
			c1.1,2.7,2.1,4.9,2.8,6.4c0.8,1.5,1.6,2.7,2.5,3.6c0.9,0.8,1.9,1.4,3,1.7c1.1,0.3,2.6,0.6,4.4,0.7v3.3h-30.2v-3.3
			c2.6-0.1,4.4-0.4,5.5-0.8c1.1-0.4,1.7-1.3,1.7-2.6c0-0.7-0.2-1.7-0.6-2.9c-0.4-1.2-0.9-2.6-1.5-4.3L845,215.4z M824.2,210.6h19
			l-9.2-24.2h-0.3L824.2,210.6z"/>
		<path d="M955.2,234.9l-35.4-50.5h-0.3v34.4c0,2.7,0.1,4.8,0.3,6.3c0.2,1.5,0.6,2.7,1.2,3.6c0.6,0.9,1.5,1.4,2.6,1.7
			c1.1,0.3,2.5,0.4,4.3,0.5v3.2H904v-3.2c2-0.1,3.6-0.2,4.8-0.5c1.2-0.3,2.1-0.8,2.8-1.6c0.7-0.8,1.1-1.9,1.3-3.4
			c0.2-1.5,0.3-3.5,0.3-6v-32.2c0-2.2-0.1-4.1-0.3-5.6c-0.2-1.5-0.6-2.6-1.2-3.5c-0.6-0.9-1.4-1.5-2.5-1.8c-1.1-0.3-2.5-0.6-4.4-0.7
			v-3.2h22.3l32.2,46.2h0.3v-31c0-2.6-0.1-4.7-0.3-6.3c-0.2-1.6-0.6-2.8-1.2-3.6c-0.6-0.9-1.5-1.4-2.6-1.7c-1.1-0.3-2.5-0.4-4.3-0.5
			v-3.2h23.8v3.2c-2,0.1-3.6,0.2-4.8,0.5c-1.2,0.3-2.1,0.8-2.8,1.6c-0.7,0.8-1.1,1.9-1.3,3.4c-0.2,1.5-0.3,3.5-0.3,5.9v47.7H955.2z"
			/>
		<path d="M1074,190.1h-3.4c-0.2-2.6-0.5-4.8-1.2-6.5s-1.5-3.1-2.6-4.2s-2.5-1.8-4.1-2.2c-1.6-0.4-3.5-0.6-5.6-0.6
			c-2.1,0-3.7,0-5,0.1c-1.3,0.1-2.2,0.2-2.9,0.4c-0.7,0.2-1.1,0.4-1.3,0.8c-0.2,0.3-0.3,0.7-0.3,1.2V221c0,1.7,0.1,3.2,0.4,4.4
			c0.2,1.2,0.7,2.2,1.5,3c0.7,0.8,1.8,1.4,3.3,1.8c1.4,0.4,3.3,0.6,5.7,0.7v3.2h-33.5v-3.2c2.4-0.1,4.3-0.3,5.8-0.7
			c1.4-0.4,2.5-1,3.3-1.8c0.8-0.8,1.3-1.8,1.5-3c0.2-1.2,0.4-2.7,0.4-4.4v-41.9c0-0.5-0.1-0.9-0.3-1.2c-0.2-0.3-0.6-0.6-1.2-0.8
			c-0.6-0.2-1.4-0.3-2.5-0.4c-1.1-0.1-2.5-0.1-4.3-0.1c-1.9,0-3.8,0.1-5.5,0.3c-1.8,0.2-3.3,0.7-4.6,1.6c-1.3,0.9-2.4,2.2-3.2,4
			c-0.8,1.8-1.3,4.3-1.3,7.6h-3.1l0.8-17.6h62.6L1074,190.1z"/>
		<path d="M1130,200c3.4,0,6.2-0.1,8.2-0.3c2.1-0.2,3.7-0.7,4.8-1.3c1.1-0.7,2-1.6,2.4-2.9c0.5-1.3,0.9-3,1.1-5.2h3v23.4h-3
			c-0.3-2.1-0.7-3.8-1.3-5.1c-0.5-1.3-1.4-2.3-2.6-2.9c-1.2-0.7-2.8-1.1-4.8-1.3c-2-0.2-4.7-0.3-8-0.3v16.5c0,1.7,0.2,3.1,0.7,4.3
			c0.5,1.2,1.2,2.1,2.3,2.8c1.1,0.7,2.5,1.2,4.2,1.5c1.8,0.3,3.9,0.4,6.5,0.4c3,0,5.6-0.2,7.7-0.6c2.1-0.4,3.9-1.2,5.2-2.2
			c1.4-1.1,2.5-2.5,3.4-4.3c0.9-1.8,1.6-4,2.2-6.8h3.2l-1.3,18.3h-54.2v-3.2c1.8-0.1,3.2-0.2,4.3-0.5c1.1-0.3,2-0.7,2.6-1.4
			s1-1.5,1.2-2.7c0.2-1.2,0.3-2.7,0.3-4.6v-37c0-1.9-0.1-3.4-0.3-4.5c-0.2-1.1-0.5-2.1-1.1-2.7c-0.5-0.7-1.3-1.1-2.3-1.4
			c-1-0.2-2.3-0.4-3.9-0.5v-3.2h50.6l0.6,15.7h-3.4c-0.3-2.2-0.8-4.1-1.5-5.6c-0.7-1.5-1.7-2.6-2.9-3.5c-1.2-0.9-2.8-1.5-4.8-1.8
			c-1.9-0.3-4.3-0.5-7.2-0.5h-9c-1.4,0-2.2,0.2-2.6,0.5c-0.3,0.3-0.5,1.2-0.5,2.4V200z"/>
		<path d="M1255.7,187.9c0,4.4-1.3,8.1-3.8,11.1c-2.6,3-6.6,5-12.2,6l18.6,21.3c1.3,1.5,2.8,2.6,4.6,3.4c1.8,0.8,3.5,1.2,5.4,1.2
			v3.2h-19l-19.8-24.3c-1.3-1.6-2.5-2.7-3.5-3.2c-1-0.6-1.9-0.8-2.8-0.8v15.7c0,2,0.1,3.6,0.4,4.8c0.3,1.3,0.8,2.2,1.6,2.9
			c0.8,0.7,2,1.2,3.5,1.4c1.5,0.2,3.6,0.4,6.1,0.4v3.2h-31.8v-3.2c1.8,0,3.2-0.1,4.3-0.4c1.1-0.2,1.9-0.7,2.6-1.4
			c0.6-0.7,1-1.6,1.2-2.8c0.2-1.2,0.3-2.7,0.3-4.6v-37c0-1.9-0.1-3.4-0.2-4.5c-0.2-1.1-0.5-2.1-1-2.7c-0.5-0.7-1.3-1.1-2.3-1.4
			c-1-0.2-2.3-0.4-4-0.5v-3.2h27.7c7.7,0,13.7,1.4,17.9,4.1C1253.6,179.3,1255.7,183.1,1255.7,187.9z M1223.1,200.9h5.2
			c5,0,8.8-1,11.2-2.9c2.5-1.9,3.7-5.2,3.7-9.6c0-3.4-1-6.2-3.1-8.2s-5-3.1-8.6-3.1h-7c-1,0-1.4,0.5-1.4,1.4V200.9z"/>
		<path d="M1350.9,234.9l-35.4-50.5h-0.3v34.4c0,2.7,0.1,4.8,0.3,6.3c0.2,1.5,0.6,2.7,1.2,3.6c0.6,0.9,1.5,1.4,2.6,1.7
			c1.1,0.3,2.5,0.4,4.3,0.5v3.2h-23.8v-3.2c2-0.1,3.6-0.2,4.8-0.5c1.2-0.3,2.1-0.8,2.8-1.6c0.7-0.8,1.1-1.9,1.3-3.4
			c0.2-1.5,0.3-3.5,0.3-6v-32.2c0-2.2-0.1-4.1-0.3-5.6c-0.2-1.5-0.6-2.6-1.2-3.5c-0.6-0.9-1.4-1.5-2.5-1.8c-1.1-0.3-2.5-0.6-4.4-0.7
			v-3.2h22.3l32.2,46.2h0.3v-31c0-2.6-0.1-4.7-0.3-6.3c-0.2-1.6-0.6-2.8-1.2-3.6c-0.6-0.9-1.5-1.4-2.6-1.7c-1.1-0.3-2.5-0.4-4.3-0.5
			v-3.2h23.8v3.2c-2,0.1-3.6,0.2-4.8,0.5c-1.2,0.3-2.1,0.8-2.8,1.6c-0.7,0.8-1.1,1.9-1.3,3.4c-0.2,1.5-0.3,3.5-0.3,5.9v47.7H1350.9z
			"/>
		<path d="M1504.3,219.1l18.5-46.6h23.4v3.2c-1.8,0-3.2,0.2-4.3,0.5c-1.1,0.3-1.9,1-2.5,1.9c-0.6,0.9-1,2.1-1.2,3.7
			c-0.2,1.6-0.3,3.6-0.3,6v31c0,2.7,0.1,4.8,0.3,6.3c0.2,1.5,0.6,2.7,1.3,3.6c0.6,0.9,1.6,1.4,2.8,1.7c1.2,0.3,2.8,0.4,4.8,0.5v3.2
			h-30.1v-3.2c2-0.1,3.6-0.2,4.8-0.5c1.2-0.3,2.1-0.8,2.8-1.6c0.7-0.8,1.1-1.9,1.3-3.4c0.2-1.5,0.3-3.5,0.3-6v-37.4h-0.4l-21.5,53
			h-5.9l-22.2-53h-0.3v36.9c0,2.7,0.1,4.8,0.3,6.3c0.2,1.5,0.6,2.7,1.3,3.6c0.6,0.9,1.6,1.4,2.8,1.7c1.2,0.3,2.8,0.4,4.8,0.5v3.2
			h-24.6v-3.2c2-0.1,3.6-0.2,4.8-0.5c1.2-0.3,2.2-0.8,2.8-1.6c0.7-0.8,1.1-1.9,1.3-3.4c0.2-1.5,0.3-3.5,0.3-6v-32.2
			c0-2.2-0.1-4.1-0.3-5.6c-0.2-1.5-0.6-2.7-1.2-3.6c-0.6-0.9-1.4-1.5-2.5-1.8c-1.1-0.3-2.5-0.5-4.4-0.5v-3.2h24.2l18.6,46.6H1504.3z
			"/>
		<path d="M1604.4,200c3.4,0,6.2-0.1,8.2-0.3c2.1-0.2,3.7-0.7,4.8-1.3c1.1-0.7,2-1.6,2.4-2.9c0.5-1.3,0.9-3,1.1-5.2h3v23.4h-3
			c-0.3-2.1-0.7-3.8-1.3-5.1c-0.5-1.3-1.4-2.3-2.6-2.9c-1.2-0.7-2.8-1.1-4.8-1.3c-2-0.2-4.7-0.3-8-0.3v16.5c0,1.7,0.2,3.1,0.7,4.3
			c0.5,1.2,1.2,2.1,2.3,2.8c1.1,0.7,2.5,1.2,4.2,1.5c1.8,0.3,3.9,0.4,6.5,0.4c3,0,5.6-0.2,7.7-0.6c2.1-0.4,3.9-1.2,5.2-2.2
			c1.4-1.1,2.5-2.5,3.4-4.3c0.9-1.8,1.6-4,2.2-6.8h3.2l-1.3,18.3h-54.2v-3.2c1.8-0.1,3.2-0.2,4.3-0.5c1.1-0.3,2-0.7,2.6-1.4
			s1-1.5,1.2-2.7c0.2-1.2,0.3-2.7,0.3-4.6v-37c0-1.9-0.1-3.4-0.3-4.5c-0.2-1.1-0.5-2.1-1.1-2.7c-0.5-0.7-1.3-1.1-2.3-1.4
			c-1-0.2-2.3-0.4-3.9-0.5v-3.2h50.6l0.6,15.7h-3.4c-0.3-2.2-0.8-4.1-1.5-5.6c-0.7-1.5-1.7-2.6-2.9-3.5c-1.2-0.9-2.8-1.5-4.8-1.8
			c-1.9-0.3-4.3-0.5-7.2-0.5h-9c-1.4,0-2.2,0.2-2.6,0.5c-0.3,0.3-0.5,1.2-0.5,2.4V200z"/>
		<path d="M1677.3,234.1v-3.2c1.8-0.1,3.2-0.2,4.3-0.4c1.1-0.2,1.9-0.7,2.6-1.4c0.6-0.7,1-1.6,1.2-2.7c0.2-1.1,0.3-2.7,0.3-4.6v-37
			c0-1.9-0.1-3.4-0.2-4.5c-0.2-1.1-0.5-2.1-1-2.7c-0.5-0.7-1.3-1.1-2.2-1.4c-0.9-0.2-2.1-0.4-3.6-0.5v-3.2h30.4
			c5.1,0,9.8,0.8,14.2,2.4c4.3,1.6,8.1,3.8,11.2,6.6c3.1,2.8,5.6,6.2,7.4,10.1c1.8,3.9,2.6,8.1,2.6,12.7c0,4.4-0.8,8.4-2.5,12
			c-1.7,3.7-4,6.8-6.9,9.4c-3,2.6-6.5,4.7-10.6,6.1c-4.1,1.5-8.7,2.2-13.6,2.2H1677.3z M1698.8,177.4c-0.9,0-1.4,0.5-1.4,1.4v41.4
			c0,3.1,1,5.4,2.9,6.9c1.9,1.5,4.9,2.2,8.9,2.2c7,0,12.4-2.1,16.1-6.3c3.8-4.2,5.6-10.3,5.6-18.4c0-4.3-0.5-8.1-1.5-11.4
			c-1-3.4-2.5-6.2-4.4-8.5c-1.9-2.3-4.3-4.1-7-5.3c-2.7-1.2-5.8-1.8-9.2-1.8H1698.8z"/>
		<path d="M1811.5,234.1h-28.6v-3.2c1.8-0.1,3.3-0.2,4.4-0.5c1.1-0.3,1.9-0.8,2.5-1.6c0.6-0.8,1-1.9,1.2-3.4c0.2-1.5,0.3-3.5,0.3-6
			v-32.2c0-2.2-0.1-4.1-0.3-5.6c-0.2-1.5-0.5-2.6-1.1-3.5c-0.5-0.9-1.3-1.5-2.3-1.8c-1-0.3-2.3-0.6-4-0.7v-3.2h27v3.2
			c-1.7,0.1-3,0.3-4,0.7c-1,0.3-1.7,0.9-2.3,1.8c-0.5,0.9-0.9,2-1.1,3.5c-0.2,1.5-0.3,3.3-0.3,5.6v32.2c0,2.5,0.1,4.5,0.3,6
			c0.2,1.5,0.6,2.6,1.2,3.4c0.6,0.8,1.5,1.3,2.6,1.6c1.1,0.3,2.5,0.5,4.4,0.5V234.1z"/>
		<path d="M1886.4,215.4h-22.6c-2.5,5.7-3.8,9.6-3.8,11.8c0,1.6,0.6,2.6,1.8,3c1.2,0.4,3,0.6,5.4,0.6v3.2h-21.9v-3.2
			c1.3-0.2,2.4-0.4,3.3-0.6c0.9-0.3,1.8-0.6,2.5-1.1c0.7-0.5,1.3-1.1,1.9-1.9c0.5-0.8,1-1.7,1.5-2.8l21-52.7h5.9l19.1,46.7
			c1.1,2.7,2.1,4.9,2.8,6.4c0.8,1.5,1.6,2.7,2.5,3.6c0.9,0.8,1.9,1.4,3,1.7c1.1,0.3,2.6,0.6,4.4,0.7v3.3h-30.2v-3.3
			c2.6-0.1,4.4-0.4,5.5-0.8c1.1-0.4,1.7-1.3,1.7-2.6c0-0.7-0.2-1.7-0.6-2.9c-0.4-1.2-0.9-2.6-1.5-4.3L1886.4,215.4z M1865.6,210.6
			h19l-9.2-24.2h-0.3L1865.6,210.6z"/>
	</g>
</g>
</svg>
